<svg xmlns="http://www.w3.org/2000/svg" viewBox="0 0 360 92" role="img" aria-labelledby="title desc">
  <title id="title">Rhythm game arrows</title>
  <desc id="desc">Stylized blue rhythm game arrows with a center emblem.</desc>
  <g fill="none" stroke="#2f58ff" stroke-width="4" stroke-linejoin="round" stroke-linecap="round">
    <path d="M18 46l20-20h36v18h24v24H74v18H38L18 66z" />
    <path d="M108 28h58v18h24l-20 20-20-20h16V40h-58z" />
    <path d="M252 28h58v12h16l-20 20-20-20h16v-12h-50z" />
    <path d="M338 46l-20-20h-36v18h-24v24h24v18h36l20-20z" />
    <path d="M180 12l26 14v30l-26 14-26-14V26z" />
    <circle cx="172" cy="39" r="5" />
    <circle cx="188" cy="39" r="5" />
  </g>
</svg>
