<svg xmlns="http://www.w3.org/2000/svg" width="1024" height="576" viewBox="0 0 1024 576">
  <defs>
    <pattern id="dotGrid" width="32" height="32" patternUnits="userSpaceOnUse">
      <circle cx="4" cy="4" r="1.25" fill="#38bdf8" opacity="0.46"/>
    </pattern>
  </defs>
  <rect width="1024" height="576" fill="#0f1528"/>
  <rect width="1024" height="576" fill="url(#dotGrid)"/>
  <rect x="0" y="0" width="4" height="576" fill="#38bdf8" opacity="0.9"/>
  <circle cx="956" cy="58" r="90" fill="#38bdf8" opacity="0.9"/>
  <circle cx="960" cy="574" r="86" fill="#0ea5e9" opacity="0.88"/>
  <text x="64" y="166" fill="#f8fafc" font-size="62" font-family="Inter,Segoe UI,Arial,sans-serif" font-weight="600">CMU March Madness ML</text>
  <text x="64" y="224" fill="#bae6fd" font-size="24" font-family="Inter,Segoe UI,Arial,sans-serif" font-weight="400">Ensemble tournament predictions with live dashboard</text>
  <line x1="64" y1="252" x2="960" y2="252" stroke="#38bdf8" stroke-width="2" opacity="0.62"/>
  <rect x="64" y="270" width="76" height="34" rx="8" fill="#20313a"/><text x="76" y="293" fill="#bae6fd" font-size="17" font-family="Inter,Segoe UI,Arial,sans-serif" font-weight="500">Python</text>
  <rect x="148" y="270" width="86" height="34" rx="8" fill="#20313a"/><text x="160" y="293" fill="#bae6fd" font-size="17" font-family="Inter,Segoe UI,Arial,sans-serif" font-weight="500">XGBoost</text>
  <rect x="242" y="270" width="96" height="34" rx="8" fill="#20313a"/><text x="254" y="293" fill="#bae6fd" font-size="17" font-family="Inter,Segoe UI,Arial,sans-serif" font-weight="500">LightGBM</text>
  <rect x="346" y="270" width="136" height="34" rx="8" fill="#20313a"/><text x="358" y="293" fill="#bae6fd" font-size="17" font-family="Inter,Segoe UI,Arial,sans-serif" font-weight="500">scikit-learn</text>
  <rect x="490" y="270" width="76" height="34" rx="8" fill="#20313a"/><text x="502" y="293" fill="#bae6fd" font-size="17" font-family="Inter,Segoe UI,Arial,sans-serif" font-weight="500">Optuna</text>
  <rect x="574" y="270" width="76" height="34" rx="8" fill="#20313a"/><text x="586" y="293" fill="#bae6fd" font-size="17" font-family="Inter,Segoe UI,Arial,sans-serif" font-weight="500">pandas</text>
  <text x="64" y="536" fill="#bae6fd" font-size="20" font-family="Inter,Segoe UI,Arial,sans-serif" font-weight="400">github.com/Qrytics/cmuMarchMadness-ML</text>
</svg>
